<svg viewBox="0 0 1024 1024" version="1.1" xmlns="http://www.w3.org/2000/svg" xmlns:xlink="http://www.w3.org/1999/xlink" width="200" height="200">
<path d="M697.078967 1024l-134.868518-225.76752 52.77342-29.312678 82.095098 143.664422 52.77342-82.093098 99.687905-5.866936-82.095098-143.666422 52.77342-29.318678 129.008583 225.75852-164.188196 11.728871L697.078967 1024zM697.078967 1024M333.513961 1024l-87.955034-134.874518L81.368731 877.397611l131.93955-225.75852 52.77342 29.318678-85.031066 143.666422 99.687905 5.866936 52.77342 82.093098 82.095098-143.664422 52.77842 29.312678L333.513961 1024zM333.513961 1024M515.296964 880.329578c-5.860936 0-14.656839-2.932968-20.523775-8.791903l-76.228163-70.368227-102.617873 23.454742c-14.662839 2.930968-29.319678-5.866936-35.186613-20.522775l-29.319678-99.688905-99.682905-29.318678c-14.661839-5.859936-23.459742-17.587807-20.523775-35.181613l20.523775-102.617873-70.368227-76.234162c-8.795903-11.728871-8.795903-29.321678 0-38.111581l70.368227-76.233162-20.523775-102.618873c-2.935968-14.656839 5.861936-29.319678 20.523775-32.250646l99.682905-38.116581 29.319678-96.751937c5.865936-14.662839 17.593807-23.459742 32.249646-20.523775l102.618873 20.523775 76.233162-70.369227c11.728871-8.794903 29.320678-8.794903 38.117581 0l76.228163 70.369227 102.617873-20.523775c14.662839-2.935968 29.320678 5.860936 32.250646 20.523775l29.320678 96.751937 99.686905 32.250646c14.662839 5.865936 23.453742 20.523775 20.523775 32.249646L870.064066 340.847505l70.367227 76.234162c8.796903 11.726871 8.796903 29.320678 0 38.116581l-70.367227 76.228163 20.523775 102.618873c2.929968 14.662839-5.860936 29.318678-20.523775 35.187613l-90.891001 35.179614-29.320678 99.688905c-5.859936 14.655839-20.522775 23.453742-35.180613 20.522775l-102.618873-23.454742-76.233162 70.368227C529.959803 877.397611 521.162899 880.329578 515.296964 880.329578L515.296964 880.329578zM427.34093 739.598125c8.790903 0 14.657839 2.930968 20.522775 8.798903l67.433259 64.501291 67.437259-64.501291c5.859936-5.867936 17.593807-8.798903 26.38471-5.867936l90.892001 20.523775 26.38971-87.960034c2.930968-8.797903 8.796903-17.587807 20.523775-20.522775l87.960034-26.38671-17.592807-90.890001c-2.930968-8.797903 0-17.592807 5.865936-26.38971l61.570324-67.432259-61.570324-67.437259c-5.865936-5.865936-8.796903-17.592807-5.865936-26.38971l17.592807-90.893001-90.891001-29.312678c-8.796903-2.935968-14.662839-8.796903-17.593807-17.593807l-26.38971-85.030066-90.892001 17.592807c-8.790903 2.930968-17.587807 0-26.38471-5.859936l-67.437259-70.368227-67.433259 61.571324c-5.864936 5.860936-17.593807 8.796903-26.38971 5.860936l-90.891001-17.587807-26.38471 87.955034c-2.936968 8.796903-8.797903 14.662839-17.593807 17.593807l-90.892001 29.319678 17.594807 90.891001c2.928968 8.794903 0 17.587807-5.866936 26.38471l-64.501291 70.367227 61.570324 67.436259c5.860936 5.860936 8.797903 17.593807 5.860936 26.38671l-17.587807 90.890001 87.955034 26.39171c8.796903 2.930968 17.593807 8.796903 20.522775 20.523775l26.39171 87.959034 90.890001-20.523775L427.34093 739.599125 427.34093 739.598125zM427.34093 739.598125M515.296964 631.115316c-105.54984 0-190.573906-85.026066-190.573906-190.579906 0-105.54984 85.024066-190.572906 190.573906-190.572906 105.55384 0 190.578906 85.023066 190.578906 190.572906C705.87587 546.08925 620.850804 631.115316 515.296964 631.115316L515.296964 631.115316zM515.296964 279.277182c-87.956034 0-161.260228 73.302195-161.260228 161.258228 0 87.960034 73.304195 161.259228 161.260228 161.259228 87.961034 0 161.258228-73.299195 161.258228-161.259228C676.555192 352.579376 603.257997 279.277182 515.296964 279.277182L515.296964 279.277182zM515.296964 279.277182" ></path>
</svg>